<mxfile host="Electron" modified="2024-03-18T11:47:31.589Z" agent="Mozilla/5.0 (Windows NT 10.0; Win64; x64) AppleWebKit/537.36 (KHTML, like Gecko) draw.io/23.1.5 Chrome/120.0.6099.109 Electron/28.1.0 Safari/537.36" etag="KJ-arrdYf_cHliKMcFXZ" version="23.1.5" type="device">
  <diagram name="Страница — 1" id="9xa7tTSJgd2_Glu7l7I9">
    <mxGraphModel dx="2150" dy="1035" grid="1" gridSize="10" guides="1" tooltips="1" connect="1" arrows="1" fold="1" page="0" pageScale="1" pageWidth="827" pageHeight="1169" math="0" shadow="0">
      <root>
        <mxCell id="0" />
        <mxCell id="1" parent="0" />
        <mxCell id="XBxHbqEH50NBFgfwNpSP-52" value=":Shopping Cart" style="shape=umlLifeline;perimeter=lifelinePerimeter;whiteSpace=wrap;html=1;container=1;dropTarget=0;collapsible=0;recursiveResize=0;outlineConnect=0;portConstraint=eastwest;newEdgeStyle={&quot;curved&quot;:0,&quot;rounded&quot;:0};" parent="1" vertex="1">
          <mxGeometry x="960" y="120" width="100" height="1160" as="geometry" />
        </mxCell>
        <mxCell id="XBxHbqEH50NBFgfwNpSP-61" value="Price calculation" style="html=1;align=left;spacingLeft=2;endArrow=block;rounded=0;edgeStyle=orthogonalEdgeStyle;curved=0;rounded=0;" parent="XBxHbqEH50NBFgfwNpSP-52" edge="1">
          <mxGeometry relative="1" as="geometry">
            <mxPoint x="55" y="691" as="sourcePoint" />
            <Array as="points">
              <mxPoint x="85" y="721" />
            </Array>
            <mxPoint x="60" y="721" as="targetPoint" />
          </mxGeometry>
        </mxCell>
        <mxCell id="XBxHbqEH50NBFgfwNpSP-54" value="" style="html=1;points=[[0,0,0,0,5],[0,1,0,0,-5],[1,0,0,0,5],[1,1,0,0,-5]];perimeter=orthogonalPerimeter;outlineConnect=0;targetShapes=umlLifeline;portConstraint=eastwest;newEdgeStyle={&quot;curved&quot;:0,&quot;rounded&quot;:0};" parent="1" vertex="1">
          <mxGeometry x="1005" y="721" width="10" height="190" as="geometry" />
        </mxCell>
        <mxCell id="XBxHbqEH50NBFgfwNpSP-2" value=": Buyer" style="shape=umlActor;verticalLabelPosition=bottom;verticalAlign=top;html=1;" parent="1" vertex="1">
          <mxGeometry x="127" y="110" width="33" height="60" as="geometry" />
        </mxCell>
        <mxCell id="XBxHbqEH50NBFgfwNpSP-3" value="" style="html=1;points=[[0,0,0,0,5],[0,1,0,0,-5],[1,0,0,0,5],[1,1,0,0,-5]];perimeter=orthogonalPerimeter;outlineConnect=0;targetShapes=umlLifeline;portConstraint=eastwest;newEdgeStyle={&quot;curved&quot;:0,&quot;rounded&quot;:0};" parent="1" vertex="1">
          <mxGeometry x="137" y="200" width="10" height="1080" as="geometry" />
        </mxCell>
        <mxCell id="XBxHbqEH50NBFgfwNpSP-5" value=":Authorization system" style="shape=umlLifeline;perimeter=lifelinePerimeter;whiteSpace=wrap;html=1;container=1;dropTarget=0;collapsible=0;recursiveResize=0;outlineConnect=0;portConstraint=eastwest;newEdgeStyle={&quot;curved&quot;:0,&quot;rounded&quot;:0};" parent="1" vertex="1">
          <mxGeometry x="250" y="120" width="100" height="1160" as="geometry" />
        </mxCell>
        <mxCell id="XBxHbqEH50NBFgfwNpSP-6" value="" style="html=1;points=[[0,0,0,0,5],[0,1,0,0,-5],[1,0,0,0,5],[1,1,0,0,-5]];perimeter=orthogonalPerimeter;outlineConnect=0;targetShapes=umlLifeline;portConstraint=eastwest;newEdgeStyle={&quot;curved&quot;:0,&quot;rounded&quot;:0};" parent="XBxHbqEH50NBFgfwNpSP-5" vertex="1">
          <mxGeometry x="45" y="80" width="10" height="110" as="geometry" />
        </mxCell>
        <mxCell id="XBxHbqEH50NBFgfwNpSP-7" value="Data entry" style="html=1;verticalAlign=bottom;endArrow=block;curved=0;rounded=0;entryX=0;entryY=0;entryDx=0;entryDy=5;exitX=1;exitY=0;exitDx=0;exitDy=5;exitPerimeter=0;" parent="1" source="XBxHbqEH50NBFgfwNpSP-3" target="XBxHbqEH50NBFgfwNpSP-6" edge="1">
          <mxGeometry relative="1" as="geometry">
            <mxPoint x="225" y="205" as="sourcePoint" />
          </mxGeometry>
        </mxCell>
        <mxCell id="XBxHbqEH50NBFgfwNpSP-15" value="Data transmission" style="html=1;verticalAlign=bottom;endArrow=block;curved=0;rounded=0;entryX=0;entryY=0;entryDx=0;entryDy=5;entryPerimeter=0;" parent="1" source="XBxHbqEH50NBFgfwNpSP-6" target="9cNLccWUoyXIzgvkh4ip-14" edge="1">
          <mxGeometry relative="1" as="geometry">
            <mxPoint x="305" y="300" as="sourcePoint" />
            <mxPoint x="390" y="250" as="targetPoint" />
          </mxGeometry>
        </mxCell>
        <mxCell id="XBxHbqEH50NBFgfwNpSP-16" value="Successful authorization" style="html=1;verticalAlign=bottom;endArrow=open;dashed=1;endSize=8;curved=0;rounded=0;exitX=0;exitY=1;exitDx=0;exitDy=-5;exitPerimeter=0;" parent="1" source="9cNLccWUoyXIzgvkh4ip-14" target="XBxHbqEH50NBFgfwNpSP-3" edge="1">
          <mxGeometry relative="1" as="geometry">
            <mxPoint x="160" y="430" as="targetPoint" />
            <mxPoint x="454" y="435" as="sourcePoint" />
          </mxGeometry>
        </mxCell>
        <mxCell id="XBxHbqEH50NBFgfwNpSP-30" value=":Menu" style="shape=umlLifeline;perimeter=lifelinePerimeter;whiteSpace=wrap;html=1;container=1;dropTarget=0;collapsible=0;recursiveResize=0;outlineConnect=0;portConstraint=eastwest;newEdgeStyle={&quot;curved&quot;:0,&quot;rounded&quot;:0};" parent="1" vertex="1">
          <mxGeometry x="580" y="120" width="100" height="1160" as="geometry" />
        </mxCell>
        <mxCell id="XBxHbqEH50NBFgfwNpSP-43" value="" style="html=1;points=[[0,0,0,0,5],[0,1,0,0,-5],[1,0,0,0,5],[1,1,0,0,-5]];perimeter=orthogonalPerimeter;outlineConnect=0;targetShapes=umlLifeline;portConstraint=eastwest;newEdgeStyle={&quot;curved&quot;:0,&quot;rounded&quot;:0};" parent="XBxHbqEH50NBFgfwNpSP-30" vertex="1">
          <mxGeometry x="45" y="530" width="10" height="80" as="geometry" />
        </mxCell>
        <mxCell id="XBxHbqEH50NBFgfwNpSP-31" value=":Dish" style="shape=umlLifeline;perimeter=lifelinePerimeter;whiteSpace=wrap;html=1;container=1;dropTarget=0;collapsible=0;recursiveResize=0;outlineConnect=0;portConstraint=eastwest;newEdgeStyle={&quot;curved&quot;:0,&quot;rounded&quot;:0};" parent="1" vertex="1">
          <mxGeometry x="760" y="120" width="100" height="1160" as="geometry" />
        </mxCell>
        <mxCell id="XBxHbqEH50NBFgfwNpSP-49" value="" style="html=1;points=[[0,0,0,0,5],[0,1,0,0,-5],[1,0,0,0,5],[1,1,0,0,-5]];perimeter=orthogonalPerimeter;outlineConnect=0;targetShapes=umlLifeline;portConstraint=eastwest;newEdgeStyle={&quot;curved&quot;:0,&quot;rounded&quot;:0};" parent="XBxHbqEH50NBFgfwNpSP-31" vertex="1">
          <mxGeometry x="45" y="600" width="10" height="80" as="geometry" />
        </mxCell>
        <mxCell id="XBxHbqEH50NBFgfwNpSP-50" value="Choosing a dish" style="html=1;verticalAlign=bottom;endArrow=block;curved=0;rounded=0;entryX=0;entryY=0;entryDx=0;entryDy=5;exitX=1;exitY=1;exitDx=0;exitDy=-5;exitPerimeter=0;" parent="1" source="XBxHbqEH50NBFgfwNpSP-43" target="XBxHbqEH50NBFgfwNpSP-49" edge="1">
          <mxGeometry relative="1" as="geometry">
            <mxPoint x="786" y="726" as="sourcePoint" />
          </mxGeometry>
        </mxCell>
        <mxCell id="XBxHbqEH50NBFgfwNpSP-57" value="Adding a dish" style="html=1;verticalAlign=bottom;endArrow=block;curved=0;rounded=0;exitX=1;exitY=1;exitDx=0;exitDy=-5;exitPerimeter=0;" parent="1" edge="1" target="XBxHbqEH50NBFgfwNpSP-54" source="XBxHbqEH50NBFgfwNpSP-49">
          <mxGeometry relative="1" as="geometry">
            <mxPoint x="1106" y="791" as="sourcePoint" />
            <mxPoint x="1250" y="800" as="targetPoint" />
          </mxGeometry>
        </mxCell>
        <mxCell id="XBxHbqEH50NBFgfwNpSP-62" value="" style="html=1;points=[[0,0,0,0,5],[0,1,0,0,-5],[1,0,0,0,5],[1,1,0,0,-5]];perimeter=orthogonalPerimeter;outlineConnect=0;targetShapes=umlLifeline;portConstraint=eastwest;newEdgeStyle={&quot;curved&quot;:0,&quot;rounded&quot;:0};" parent="1" vertex="1">
          <mxGeometry x="1010" y="831" width="10" height="40" as="geometry" />
        </mxCell>
        <mxCell id="XBxHbqEH50NBFgfwNpSP-63" value=":Order Service" style="shape=umlLifeline;perimeter=lifelinePerimeter;whiteSpace=wrap;html=1;container=1;dropTarget=0;collapsible=0;recursiveResize=0;outlineConnect=0;portConstraint=eastwest;newEdgeStyle={&quot;curved&quot;:0,&quot;rounded&quot;:0};" parent="1" vertex="1">
          <mxGeometry x="1120" y="120" width="100" height="1120" as="geometry" />
        </mxCell>
        <mxCell id="XBxHbqEH50NBFgfwNpSP-64" value="" style="html=1;points=[[0,0,0,0,5],[0,1,0,0,-5],[1,0,0,0,5],[1,1,0,0,-5]];perimeter=orthogonalPerimeter;outlineConnect=0;targetShapes=umlLifeline;portConstraint=eastwest;newEdgeStyle={&quot;curved&quot;:0,&quot;rounded&quot;:0};" parent="XBxHbqEH50NBFgfwNpSP-63" vertex="1">
          <mxGeometry x="45" y="766" width="10" height="65" as="geometry" />
        </mxCell>
        <mxCell id="XBxHbqEH50NBFgfwNpSP-65" value="Order formation" style="html=1;verticalAlign=bottom;endArrow=block;curved=0;rounded=0;entryX=0;entryY=0;entryDx=0;entryDy=5;" parent="1" source="XBxHbqEH50NBFgfwNpSP-54" target="XBxHbqEH50NBFgfwNpSP-64" edge="1">
          <mxGeometry relative="1" as="geometry">
            <mxPoint x="1095" y="891" as="sourcePoint" />
          </mxGeometry>
        </mxCell>
        <mxCell id="XBxHbqEH50NBFgfwNpSP-67" value=":Payment system" style="shape=umlLifeline;perimeter=lifelinePerimeter;whiteSpace=wrap;html=1;container=1;dropTarget=0;collapsible=0;recursiveResize=0;outlineConnect=0;portConstraint=eastwest;newEdgeStyle={&quot;curved&quot;:0,&quot;rounded&quot;:0};" parent="1" vertex="1">
          <mxGeometry x="1280" y="120" width="100" height="1160" as="geometry" />
        </mxCell>
        <mxCell id="XBxHbqEH50NBFgfwNpSP-69" value="" style="html=1;points=[[0,0,0,0,5],[0,1,0,0,-5],[1,0,0,0,5],[1,1,0,0,-5]];perimeter=orthogonalPerimeter;outlineConnect=0;targetShapes=umlLifeline;portConstraint=eastwest;newEdgeStyle={&quot;curved&quot;:0,&quot;rounded&quot;:0};" parent="XBxHbqEH50NBFgfwNpSP-67" vertex="1">
          <mxGeometry x="45" y="781" width="10" height="289" as="geometry" />
        </mxCell>
        <mxCell id="XBxHbqEH50NBFgfwNpSP-75" value="" style="html=1;points=[[0,0,0,0,5],[0,1,0,0,-5],[1,0,0,0,5],[1,1,0,0,-5]];perimeter=orthogonalPerimeter;outlineConnect=0;targetShapes=umlLifeline;portConstraint=eastwest;newEdgeStyle={&quot;curved&quot;:0,&quot;rounded&quot;:0};" parent="XBxHbqEH50NBFgfwNpSP-67" vertex="1">
          <mxGeometry x="50" y="881" width="10" height="59" as="geometry" />
        </mxCell>
        <mxCell id="XBxHbqEH50NBFgfwNpSP-70" value="Account statement" style="html=1;verticalAlign=bottom;endArrow=block;curved=0;rounded=0;entryX=0;entryY=0;entryDx=0;entryDy=5;" parent="1" source="XBxHbqEH50NBFgfwNpSP-64" target="XBxHbqEH50NBFgfwNpSP-69" edge="1">
          <mxGeometry relative="1" as="geometry">
            <mxPoint x="1255" y="906" as="sourcePoint" />
          </mxGeometry>
        </mxCell>
        <mxCell id="XBxHbqEH50NBFgfwNpSP-74" value="Payment form" style="html=1;verticalAlign=bottom;endArrow=open;dashed=1;endSize=8;curved=0;rounded=0;exitX=0;exitY=1;exitDx=0;exitDy=-5;exitPerimeter=0;" parent="1" target="XBxHbqEH50NBFgfwNpSP-3" edge="1">
          <mxGeometry relative="1" as="geometry">
            <mxPoint x="1576" y="981" as="sourcePoint" />
            <mxPoint x="465" y="981" as="targetPoint" />
          </mxGeometry>
        </mxCell>
        <mxCell id="XBxHbqEH50NBFgfwNpSP-76" value="Entering card details" style="html=1;verticalAlign=bottom;endArrow=block;curved=0;rounded=0;entryX=0;entryY=0;entryDx=0;entryDy=5;" parent="1" source="XBxHbqEH50NBFgfwNpSP-3" target="XBxHbqEH50NBFgfwNpSP-75" edge="1">
          <mxGeometry relative="1" as="geometry">
            <mxPoint x="465" y="1006" as="sourcePoint" />
          </mxGeometry>
        </mxCell>
        <mxCell id="XBxHbqEH50NBFgfwNpSP-88" value="Payment confirmation" style="html=1;verticalAlign=bottom;endArrow=open;dashed=1;endSize=8;curved=0;rounded=0;entryX=1;entryY=0;entryDx=0;entryDy=5;entryPerimeter=0;" parent="1" target="9cNLccWUoyXIzgvkh4ip-11" edge="1">
          <mxGeometry relative="1" as="geometry">
            <mxPoint x="1490" y="1216" as="sourcePoint" />
            <mxPoint x="1179" y="1216" as="targetPoint" />
          </mxGeometry>
        </mxCell>
        <mxCell id="XBxHbqEH50NBFgfwNpSP-44" value="Search for a dish on the menu" style="html=1;verticalAlign=bottom;endArrow=block;curved=0;rounded=0;entryX=0;entryY=0;entryDx=0;entryDy=5;" parent="1" source="XBxHbqEH50NBFgfwNpSP-3" target="XBxHbqEH50NBFgfwNpSP-43" edge="1">
          <mxGeometry x="0.0007" relative="1" as="geometry">
            <mxPoint x="465" y="626" as="sourcePoint" />
            <mxPoint as="offset" />
          </mxGeometry>
        </mxCell>
        <mxCell id="9cNLccWUoyXIzgvkh4ip-6" value=":Bank operations" style="shape=umlLifeline;perimeter=lifelinePerimeter;whiteSpace=wrap;html=1;container=1;dropTarget=0;collapsible=0;recursiveResize=0;outlineConnect=0;portConstraint=eastwest;newEdgeStyle={&quot;curved&quot;:0,&quot;rounded&quot;:0};" parent="1" vertex="1">
          <mxGeometry x="1440" y="120" width="100" height="1160" as="geometry" />
        </mxCell>
        <mxCell id="9cNLccWUoyXIzgvkh4ip-7" value="" style="html=1;points=[[0,0,0,0,5],[0,1,0,0,-5],[1,0,0,0,5],[1,1,0,0,-5]];perimeter=orthogonalPerimeter;outlineConnect=0;targetShapes=umlLifeline;portConstraint=eastwest;newEdgeStyle={&quot;curved&quot;:0,&quot;rounded&quot;:0};" parent="9cNLccWUoyXIzgvkh4ip-6" vertex="1">
          <mxGeometry x="45" y="891" width="10" height="219" as="geometry" />
        </mxCell>
        <mxCell id="XBxHbqEH50NBFgfwNpSP-82" value="" style="html=1;points=[[0,0,0,0,5],[0,1,0,0,-5],[1,0,0,0,5],[1,1,0,0,-5]];perimeter=orthogonalPerimeter;outlineConnect=0;targetShapes=umlLifeline;portConstraint=eastwest;newEdgeStyle={&quot;curved&quot;:0,&quot;rounded&quot;:0};" parent="9cNLccWUoyXIzgvkh4ip-6" vertex="1">
          <mxGeometry x="50" y="930" width="10" height="40" as="geometry" />
        </mxCell>
        <mxCell id="XBxHbqEH50NBFgfwNpSP-83" value="Debiting money" style="html=1;align=left;spacingLeft=2;endArrow=block;rounded=0;edgeStyle=orthogonalEdgeStyle;curved=0;rounded=0;" parent="9cNLccWUoyXIzgvkh4ip-6" target="XBxHbqEH50NBFgfwNpSP-82" edge="1">
          <mxGeometry relative="1" as="geometry">
            <mxPoint x="55" y="910" as="sourcePoint" />
            <Array as="points">
              <mxPoint x="85" y="940" />
            </Array>
          </mxGeometry>
        </mxCell>
        <mxCell id="XBxHbqEH50NBFgfwNpSP-84" value="" style="html=1;points=[[0,0,0,0,5],[0,1,0,0,-5],[1,0,0,0,5],[1,1,0,0,-5]];perimeter=orthogonalPerimeter;outlineConnect=0;targetShapes=umlLifeline;portConstraint=eastwest;newEdgeStyle={&quot;curved&quot;:0,&quot;rounded&quot;:0};" parent="9cNLccWUoyXIzgvkh4ip-6" vertex="1">
          <mxGeometry x="50" y="1000" width="10" height="40" as="geometry" />
        </mxCell>
        <mxCell id="XBxHbqEH50NBFgfwNpSP-85" value="&lt;div&gt;Updating&lt;/div&gt;&lt;div&gt;the payment status&lt;/div&gt;" style="html=1;align=left;spacingLeft=2;endArrow=block;rounded=0;edgeStyle=orthogonalEdgeStyle;curved=0;rounded=0;" parent="9cNLccWUoyXIzgvkh4ip-6" target="XBxHbqEH50NBFgfwNpSP-84" edge="1">
          <mxGeometry relative="1" as="geometry">
            <mxPoint x="55" y="980" as="sourcePoint" />
            <Array as="points">
              <mxPoint x="85" y="1010" />
            </Array>
          </mxGeometry>
        </mxCell>
        <mxCell id="9cNLccWUoyXIzgvkh4ip-8" value="Checking the details" style="html=1;verticalAlign=bottom;endArrow=block;curved=0;rounded=0;entryX=0;entryY=0;entryDx=0;entryDy=5;" parent="1" source="XBxHbqEH50NBFgfwNpSP-75" target="9cNLccWUoyXIzgvkh4ip-7" edge="1">
          <mxGeometry relative="1" as="geometry">
            <mxPoint x="1415" y="1016" as="sourcePoint" />
          </mxGeometry>
        </mxCell>
        <mxCell id="9cNLccWUoyXIzgvkh4ip-9" value="Closing an account" style="html=1;verticalAlign=bottom;endArrow=open;dashed=1;endSize=8;curved=0;rounded=0;entryX=1;entryY=1;entryDx=0;entryDy=-5;entryPerimeter=0;" parent="1" source="9cNLccWUoyXIzgvkh4ip-7" target="XBxHbqEH50NBFgfwNpSP-69" edge="1">
          <mxGeometry relative="1" as="geometry">
            <mxPoint x="1415" y="1086" as="targetPoint" />
          </mxGeometry>
        </mxCell>
        <mxCell id="9cNLccWUoyXIzgvkh4ip-11" value="" style="html=1;points=[[0,0,0,0,5],[0,1,0,0,-5],[1,0,0,0,5],[1,1,0,0,-5]];perimeter=orthogonalPerimeter;outlineConnect=0;targetShapes=umlLifeline;portConstraint=eastwest;newEdgeStyle={&quot;curved&quot;:0,&quot;rounded&quot;:0};" parent="1" vertex="1">
          <mxGeometry x="1165" y="1210" width="10" height="70" as="geometry" />
        </mxCell>
        <mxCell id="9cNLccWUoyXIzgvkh4ip-12" value="Успешная оплата" style="html=1;verticalAlign=bottom;endArrow=open;dashed=1;endSize=8;curved=0;rounded=0;exitX=0;exitY=1;exitDx=0;exitDy=-5;exitPerimeter=0;entryX=1;entryY=1;entryDx=0;entryDy=-5;entryPerimeter=0;" parent="1" source="9cNLccWUoyXIzgvkh4ip-11" target="XBxHbqEH50NBFgfwNpSP-3" edge="1">
          <mxGeometry relative="1" as="geometry">
            <mxPoint x="1336" y="1278.46" as="sourcePoint" />
            <mxPoint x="1256" y="1278.46" as="targetPoint" />
          </mxGeometry>
        </mxCell>
        <mxCell id="9cNLccWUoyXIzgvkh4ip-13" value=":Access Manager" style="shape=umlLifeline;perimeter=lifelinePerimeter;whiteSpace=wrap;html=1;container=1;dropTarget=0;collapsible=0;recursiveResize=0;outlineConnect=0;portConstraint=eastwest;newEdgeStyle={&quot;curved&quot;:0,&quot;rounded&quot;:0};" parent="1" vertex="1">
          <mxGeometry x="420" y="120" width="100" height="1160" as="geometry" />
        </mxCell>
        <mxCell id="9cNLccWUoyXIzgvkh4ip-14" value="" style="html=1;points=[[0,0,0,0,5],[0,1,0,0,-5],[1,0,0,0,5],[1,1,0,0,-5]];perimeter=orthogonalPerimeter;outlineConnect=0;targetShapes=umlLifeline;portConstraint=eastwest;newEdgeStyle={&quot;curved&quot;:0,&quot;rounded&quot;:0};" parent="9cNLccWUoyXIzgvkh4ip-13" vertex="1">
          <mxGeometry x="45" y="170" width="10" height="110" as="geometry" />
        </mxCell>
        <mxCell id="9cNLccWUoyXIzgvkh4ip-15" value="" style="html=1;points=[[0,0,0,0,5],[0,1,0,0,-5],[1,0,0,0,5],[1,1,0,0,-5]];perimeter=orthogonalPerimeter;outlineConnect=0;targetShapes=umlLifeline;portConstraint=eastwest;newEdgeStyle={&quot;curved&quot;:0,&quot;rounded&quot;:0};" parent="9cNLccWUoyXIzgvkh4ip-13" vertex="1">
          <mxGeometry x="50" y="210" width="10" height="40" as="geometry" />
        </mxCell>
        <mxCell id="9cNLccWUoyXIzgvkh4ip-16" value="Checking the data" style="html=1;align=left;spacingLeft=2;endArrow=block;rounded=0;edgeStyle=orthogonalEdgeStyle;curved=0;rounded=0;" parent="9cNLccWUoyXIzgvkh4ip-13" target="9cNLccWUoyXIzgvkh4ip-15" edge="1">
          <mxGeometry relative="1" as="geometry">
            <mxPoint x="55" y="190" as="sourcePoint" />
            <Array as="points">
              <mxPoint x="85" y="220" />
            </Array>
          </mxGeometry>
        </mxCell>
      </root>
    </mxGraphModel>
  </diagram>
</mxfile>
